<!DOCTYPE svg PUBLIC "-//W3C//DTD SVG 1.1//EN" "http://www.w3.org/Graphics/SVG/1.1/DTD/svg11.dtd">
<!-- Uploaded to: SVG Repo, www.svgrepo.com, Transformed by: SVG Repo Mixer Tools -->
<svg version="1.1" id="Layer_1" xmlns="http://www.w3.org/2000/svg" xmlns:xlink="http://www.w3.org/1999/xlink" viewBox="0 0 481.072 481.072" xml:space="preserve" width="800px" height="800px" fill="#404040">
<g id="SVGRepo_bgCarrier" stroke-width="0"/>
<g id="SVGRepo_tracerCarrier" stroke-linecap="round" stroke-linejoin="round"/>
<g id="SVGRepo_iconCarrier"> <g style="opacity:0.7;"> <path id="SVGCleanerId_1" style="fill:#E5E5E5;" d="M343.074,64h-208c-8.84,0-16,7.16-16,16v344c0,8.84,7.16,16,16,16h208 c8.84,0,16-7.16,16-16V80C359.074,71.16,351.914,64,343.074,64z"/> <g> <path id="SVGCleanerId_1_1_" style="fill:#E5E5E5;" d="M343.074,64h-208c-8.84,0-16,7.16-16,16v344c0,8.84,7.16,16,16,16h208 c8.84,0,16-7.16,16-16V80C359.074,71.16,351.914,64,343.074,64z"/> </g> <path d="M343.074,448h-208c-13.232,0-24-10.768-24-24V80c0-13.232,10.768-24,24-24h208c13.232,0,24,10.768,24,24v344 C367.074,437.232,356.306,448,343.074,448z M135.074,72c-4.416,0-8,3.592-8,8v344c0,4.408,3.584,8,8,8h208c4.416,0,8-3.592,8-8V80 c0-4.408-3.584-8-8-8H135.074z"/> <rect x="256.514" y="64" style="fill:#A6A6A6;" width="48" height="376"/> <path d="M343.074,56h-38.568h-48H135.074c-13.232,0-24,10.768-24,24v344c0,13.232,10.768,24,24,24h121.432h48h38.568 c13.232,0,24-10.768,24-24V80C367.074,66.768,356.306,56,343.074,56z M127.074,424V80c0-4.408,3.584-8,8-8h112v360h-112 C130.658,432,127.074,428.408,127.074,424z M263.074,432V72h32v360H263.074z M351.074,424c0,4.408-3.584,8-8,8h-32V72h32 c4.416,0,8,3.592,8,8V424z"/> <path d="M199.074,176c-4.424,0-8-3.584-8-8v-64c0-4.416,3.576-8,8-8s8,3.584,8,8v64C207.074,172.416,203.498,176,199.074,176z"/> <path d="M199.074,240c-4.424,0-8-3.584-8-8v-24c0-4.416,3.576-8,8-8s8,3.584,8,8v24C207.074,236.416,203.498,240,199.074,240z"/> <circle cx="199.074" cy="296" r="8"/> <circle cx="199.074" cy="328" r="8"/> <circle cx="199.074" cy="360" r="8"/> </g> <path id="SVGCleanerId_0" style="fill:#E5E5E5;" d="M455.074,8h-208c-8.84,0-16,7.16-16,16v344c0,8.84,7.16,16,16,16h208 c8.84,0,16-7.16,16-16V24C471.074,15.16,463.914,8,455.074,8z"/> <g> <path id="SVGCleanerId_0_1_" style="fill:#E5E5E5;" d="M455.074,8h-208c-8.84,0-16,7.16-16,16v344c0,8.84,7.16,16,16,16h208 c8.84,0,16-7.16,16-16V24C471.074,15.16,463.914,8,455.074,8z"/> </g> <path d="M455.074,392h-208c-13.232,0-24-10.768-24-24V24c0-13.232,10.768-24,24-24h208c13.232,0,24,10.768,24,24v344 C479.074,381.232,468.306,392,455.074,392z M247.074,16c-4.416,0-8,3.592-8,8v344c0,4.408,3.584,8,8,8h208c4.416,0,8-3.592,8-8V24 c0-4.408-3.584-8-8-8H247.074z"/> <rect x="368.514" y="8" style="fill:#A6A6A6;" width="48" height="376"/> <path d="M455.074,0h-38.568h-48H247.074c-13.232,0-24,10.768-24,24v344c0,13.232,10.768,24,24,24h121.432h48h38.568 c13.232,0,24-10.768,24-24V24C479.074,10.768,468.306,0,455.074,0z M239.074,368V24c0-4.408,3.584-8,8-8h112v360h-112 C242.658,376,239.074,372.408,239.074,368z M375.074,376V16h32v360H375.074z M463.074,368c0,4.408-3.584,8-8,8h-32V16h32 c4.416,0,8,3.592,8,8V368z"/> <path d="M311.074,120c-4.424,0-8-3.584-8-8V48c0-4.416,3.576-8,8-8s8,3.584,8,8v64C319.074,116.416,315.498,120,311.074,120z"/> <path d="M311.074,184c-4.424,0-8-3.584-8-8v-24c0-4.416,3.576-8,8-8s8,3.584,8,8v24C319.074,180.416,315.498,184,311.074,184z"/> <circle cx="311.074" cy="240" r="8"/> <circle cx="311.074" cy="272" r="8"/> <circle cx="311.074" cy="304" r="8"/> <path d="M80.506,48h-1.432h-16V32c0-4.416-3.576-8-8-8s-8,3.584-8,8v16H32.506h-1.432c-4.424,0-8,3.584-8,8s3.576,8,8,8h1.432 h14.568v16c0,4.416,3.576,8,8,8s8-3.584,8-8V64h16h1.432c4.424,0,8-3.584,8-8S84.922,48,80.506,48z"/> <path style="fill:#A6A6A6;" d="M7.074,207.232L151.098,160l141.112,49.96c0,0-7.152,263.112-141.112,263.112 C18.738,473.072,7.074,207.232,7.074,207.232z"/> <path d="M151.098,481.072c-58.072,0-102.288-47.504-127.88-137.368C4.426,277.744,2.082,212.952,2.002,210.224 c-0.12-3.488,2.04-6.648,5.32-7.808l141.112-49.96c1.736-0.608,3.608-0.608,5.344,0l141.12,49.96c3.264,1.16,5.424,4.296,5.328,7.76 c-0.08,2.728-2.032,67.528-20.616,133.504C254.266,433.56,209.842,481.072,151.098,481.072z M18.282,215.504 c2.304,38.072,20.208,249.56,132.816,249.56c114.128,0,130.8-211.592,132.856-249.552L151.098,168.48L18.282,215.504z"/> <path style="fill:#E5E5E5;" d="M42.186,234.28l108.912-42.08l108.912,42.08c0,0-5.52,210.184-108.912,210.184 C48.946,444.456,42.186,234.28,42.186,234.28z"/> <path d="M151.098,452.456c-108.656,0-116.616-209.024-116.896-217.92c-0.112-3.4,1.936-6.496,5.112-7.72l108.904-42.088 c1.856-0.72,3.904-0.72,5.768,0l108.912,42.088c3.16,1.216,5.2,4.288,5.12,7.672C267.778,243.384,261.026,452.456,151.098,452.456z M50.482,239.656c1.992,32.744,16.24,196.808,100.616,196.808c85.536,0,98.864-164.136,100.664-196.792l-100.664-38.896 L50.482,239.656z"/> <circle style="fill:#A6A6A6;" cx="150.634" cy="318.328" r="53.688"/> <path d="M150.634,380.008c-34.016,0-61.688-27.672-61.688-61.68s27.672-61.68,61.688-61.68c34.008,0,61.68,27.672,61.68,61.68 S184.642,380.008,150.634,380.008z M150.634,272.64c-25.192,0-45.688,20.496-45.688,45.68S125.442,364,150.634,364 c25.184,0,45.68-20.496,45.68-45.68S175.826,272.64,150.634,272.64z"/> <path d="M147.41,343.232c-2.304,0-4.504-1-6.024-2.736l-13.904-15.912c-2.904-3.328-2.568-8.384,0.76-11.288 c3.312-2.912,8.384-2.576,11.288,0.76l7.832,8.96l19.744-22.992c2.896-3.352,7.944-3.72,11.28-0.856 c3.352,2.88,3.736,7.928,0.856,11.28l-25.76,30c-1.512,1.76-3.712,2.776-6.04,2.792C147.434,343.232,147.418,343.232,147.41,343.232 z"/> <circle cx="150.666" cy="230.824" r="7.592"/> <circle cx="150.666" cy="406.824" r="7.592"/> </g>
</svg>