<!DOCTYPE svg PUBLIC "-//W3C//DTD SVG 1.1//EN" "http://www.w3.org/Graphics/SVG/1.1/DTD/svg11.dtd">
<!-- Uploaded to: SVG Repo, www.svgrepo.com, Transformed by: SVG Repo Mixer Tools -->
<svg height="800px" width="800px" version="1.1" id="Layer_1" xmlns="http://www.w3.org/2000/svg" xmlns:xlink="http://www.w3.org/1999/xlink" viewBox="0 0 502.613 502.613" xml:space="preserve" fill="#000000">
<g id="SVGRepo_bgCarrier" stroke-width="0"/>
<g id="SVGRepo_tracerCarrier" stroke-linecap="round" stroke-linejoin="round"/>
<g id="SVGRepo_iconCarrier"> <g transform="translate(3 1)"> <path style="fill:#ffffff;" d="M477.854,70.68v358.4c0,17.92-11.947,31.573-29.867,34.133l-29.867-50.347l-0.853-0.853 c5.973-6.827,8.533-16.213,8.533-25.6c0-23.893-18.773-42.667-42.667-42.667s-42.667,18.773-42.667,42.667 c0,9.387,3.413,17.92,8.533,24.747l-0.853,0.853l-29.013,51.2h-199.68c-18.773,0-34.133-15.36-34.133-34.133V138.947v-102.4V2.413 h324.267C447.133,2.413,477.854,33.133,477.854,70.68z M389.107,429.933l19.627,33.28H359.24l19.627-33.28v-0.853 c1.707,0,2.56,0,4.267,0s3.413,0,5.12,0L389.107,429.933z"/> <path style="fill:#ffffff;" d="M85.32,2.413v34.133v102.4c-37.547,0-68.267-30.72-68.267-68.267S47.774,2.413,85.32,2.413 L85.32,2.413z"/> <path style="fill:#ffffff;" d="M418.12,412.013c5.973-6.827,8.533-16.213,8.533-25.6c0-23.893-18.773-42.667-42.667-42.667 c-23.893,0-42.667,18.773-42.667,42.667c0,9.387,2.56,17.92,8.533,24.747L349,412.013l-29.013,51.2h40.107l19.627-33.28v-0.853 c1.707,0,2.56,0,4.267,0s3.413,0,5.12,0c10.24-0.853,18.773-5.973,25.6-12.8c-6.827,6.827-15.36,11.093-25.6,12.8v0.853 l19.627,33.28h34.987c1.707,0,2.56,0,4.267,0c-1.707,0-2.56,0-4.267,0h-34.987l20.48,34.133l10.24-16.213l18.773-0.853 l-10.24-17.067l0,0L418.12,412.013z M415.56,415.427l-0.853,0.853L415.56,415.427z M359.24,463.213l-20.48,34.133l-10.24-16.213 l-18.773-0.853l10.24-17.067H359.24z"/> </g> <path style="fill:#51565F;" d="M341.76,502.613c-1.707,0-2.56-0.853-3.413-1.707L328.96,486.4l-17.067-0.853 c-1.707,0-2.56-0.853-3.413-2.56c-0.853-1.707-0.853-2.56,0-4.267l25.6-44.373c0.853-1.707,3.413-2.56,5.973-1.707 c1.707,0.853,2.56,3.413,1.707,5.973l-22.187,38.4l11.947,0.853c1.707,0,2.56,0.853,3.413,1.707l6.827,10.24l22.187-37.547 c0.853-1.707,3.413-2.56,5.973-1.707c1.707,0.853,2.56,3.413,1.707,5.973l-25.6,43.52 C345.174,501.76,343.467,502.613,341.76,502.613L341.76,502.613z M432.214,502.613L432.214,502.613c-1.707,0-2.56-0.853-3.413-2.56 l-25.6-43.52c-0.853-1.707-0.853-4.267,1.707-5.973c1.707-0.853,4.267-0.853,5.973,1.707l21.333,37.547l6.827-10.24 c0.853-0.853,1.707-1.707,3.413-1.707l11.947-0.853l-22.187-37.547c-0.853-1.707-0.853-4.267,1.707-5.973 c1.707-0.853,4.267-0.853,5.973,1.707l25.6,43.52c0.853,1.707,0.853,2.56,0,4.267c-0.853,1.707-1.707,2.56-3.413,2.56l-17.067,0.853 l-9.387,14.507C434.774,501.76,433.067,502.613,432.214,502.613z M284.587,468.48H122.454c-21.333,0-38.4-17.067-38.4-38.4V41.813 c-14.507,1.707-25.6,14.507-25.6,29.867c0,2.56-1.707,4.267-4.267,4.267S49.92,74.24,49.92,71.68c0-21.333,17.067-38.4,38.4-38.4 c2.56,0,4.267,1.707,4.267,4.267V430.08c0,16.213,13.653,29.867,29.867,29.867h162.133c2.56,0,4.267,1.707,4.267,4.267 C288.854,466.773,287.147,468.48,284.587,468.48z M476.587,451.413c-0.853,0-1.707,0-2.56-0.853 c-1.707-0.853-2.56-3.413-1.707-5.973c2.56-4.267,4.267-9.387,4.267-14.507V71.68c0-34.987-29.013-64-64-64H88.32 c-34.987,0-64,29.013-64,64c0,23.04,11.947,43.52,32.427,55.467c1.707,0.853,2.56,3.413,1.707,5.973 c-0.853,1.707-3.413,2.56-5.973,1.707c-22.187-12.8-35.84-36.693-35.84-62.293l0,0l0,0l0,0l0,0C16.64,32.427,49.067,0,89.173,0 H413.44c40.107,0,72.533,32.427,72.533,72.533v358.4c0,6.827-1.707,12.8-5.12,18.773C479.147,450.56,477.44,451.413,476.587,451.413 z M386.987,434.347c-25.6,0-46.933-21.333-46.933-46.933s21.333-46.933,46.933-46.933s46.933,21.333,46.933,46.933 S412.587,434.347,386.987,434.347z M386.987,349.013c-21.333,0-38.4,17.067-38.4,38.4s17.067,38.4,38.4,38.4 c21.333,0,38.4-17.067,38.4-38.4S408.32,349.013,386.987,349.013z M276.054,400.213H241.92c-1.707,0-2.56-0.853-3.413-1.707 c-0.853-0.853-0.853-2.56,0-4.267c1.707-4.267,3.413-8.533,3.413-11.093c-5.12,0.853-14.507,8.533-22.187,15.36 c-0.853,0.853-3.413,1.707-4.267,0.853c-1.707-0.853-2.56-2.56-2.56-4.267v-12.8c-4.267,3.413-11.947,9.387-17.92,16.213 c-1.707,1.707-3.413,1.707-5.12,0.853c-1.707-0.853-2.56-3.413-1.707-5.12c4.267-11.947,14.507-45.227,5.12-58.027 c-2.56-3.413-5.12-4.267-10.24-4.267c-8.533,0-14.507,3.413-17.92,8.533c-5.973,9.387-4.267,26.453,5.12,44.373 c0.853,1.707,0,4.267-1.707,5.973c-1.707,0.853-4.267,0-5.973-1.707c-10.24-21.333-11.947-40.107-4.267-52.907 c5.12-8.533,14.507-12.8,25.6-12.8c7.68,0,13.653,2.56,17.067,8.533c8.533,11.947,4.267,34.987,0,50.347 c12.8-10.24,16.213-9.387,17.92-8.533c2.56,0.853,3.413,2.56,3.413,5.973v7.68c5.973-5.12,15.36-11.947,21.333-11.947 c2.56,0,5.12,0.853,6.827,3.413c2.56,3.413,0.853,9.387,0,13.653h27.307c2.56,0,4.267,1.707,4.267,4.267 S278.614,400.213,276.054,400.213z M378.454,280.747H293.12c-2.56,0-4.267-1.707-4.267-4.267c0-2.56,1.707-4.267,4.267-4.267h85.333 c2.56,0,4.267,1.707,4.267,4.267C382.72,279.04,381.014,280.747,378.454,280.747z M258.987,280.747h-102.4 c-2.56,0-4.267-1.707-4.267-4.267c0-2.56,1.707-4.267,4.267-4.267h102.4c2.56,0,4.267,1.707,4.267,4.267 C263.254,279.04,261.547,280.747,258.987,280.747z M412.587,229.547h-51.2c-2.56,0-4.267-1.707-4.267-4.267 c0-2.56,1.707-4.267,4.267-4.267h51.2c2.56,0,4.267,1.707,4.267,4.267C416.854,227.84,415.147,229.547,412.587,229.547z M327.254,229.547H241.92c-2.56,0-4.267-1.707-4.267-4.267c0-2.56,1.707-4.267,4.267-4.267h85.333c2.56,0,4.267,1.707,4.267,4.267 C331.52,227.84,329.814,229.547,327.254,229.547z M207.787,229.547h-51.2c-2.56,0-4.267-1.707-4.267-4.267 c0-2.56,1.707-4.267,4.267-4.267h51.2c2.56,0,4.267,1.707,4.267,4.267C212.054,227.84,210.347,229.547,207.787,229.547z M395.52,178.347h-85.333c-2.56,0-4.267-1.707-4.267-4.267s1.707-4.267,4.267-4.267h85.333c2.56,0,4.267,1.707,4.267,4.267 S398.08,178.347,395.52,178.347z M276.054,178.347H156.587c-2.56,0-4.267-1.707-4.267-4.267s1.707-4.267,4.267-4.267h119.467 c2.56,0,4.267,1.707,4.267,4.267S278.614,178.347,276.054,178.347z M344.32,127.147h-17.067c-2.56,0-4.267-1.707-4.267-4.267 c0-2.56,1.707-4.267,4.267-4.267h17.067c2.56,0,4.267,1.707,4.267,4.267C348.587,125.44,346.88,127.147,344.32,127.147z M293.12,127.147h-68.267c-2.56,0-4.267-1.707-4.267-4.267c0-2.56,1.707-4.267,4.267-4.267h68.267c2.56,0,4.267,1.707,4.267,4.267 C297.387,125.44,295.68,127.147,293.12,127.147z M190.72,127.147h-34.133c-2.56,0-4.267-1.707-4.267-4.267 c0-2.56,1.707-4.267,4.267-4.267h34.133c2.56,0,4.267,1.707,4.267,4.267C194.987,125.44,193.28,127.147,190.72,127.147z"/> </g>
</svg>